<svg width="323" height="305" viewBox="0 0 323 305" fill="none" xmlns="http://www.w3.org/2000/svg">
<rect x="133" y="74" width="96" height="166.425" rx="48" transform="rotate(-30 133 74)" fill="#3974FC"/>
<rect x="108.212" y="26" width="96" height="166.425" rx="48" transform="rotate(30 108.212 26)" fill="#3974FC"/>
<g filter="url(#filter0_f_106_1630)">
<circle cx="204.267" cy="127.023" r="43.5" fill="#2663EF"/>
</g>
<g filter="url(#filter1_f_106_1630)">
<circle cx="120.267" cy="127.023" r="43.5" fill="#2663EF"/>
</g>
<rect x="61.0005" y="74" width="96" height="166.425" rx="48" transform="rotate(-30 61.0005 74)" fill="#3974FC"/>
<rect x="180.212" y="26" width="96" height="166.425" rx="48" transform="rotate(30 180.212 26)" fill="#3974FC"/>
<path d="M80.8727 262.998C78.6734 262.998 76.8889 261.218 76.8837 259.018L76.8407 240.948L67.0114 257.457C66.4002 258.484 65.2936 259.113 64.0988 259.113C62.9155 259.113 61.8178 258.496 61.2028 257.485L51.4307 241.42V259.008C51.4307 261.211 49.6443 262.998 47.4407 262.998C45.2371 262.998 43.4507 261.211 43.4507 259.008V230.743C43.4507 228.26 45.4632 226.248 47.9457 226.248C49.5219 226.248 50.9829 227.073 51.7962 228.424L64.2407 249.085L76.4908 228.431C77.2935 227.078 78.7505 226.248 80.3241 226.248C82.7805 226.248 84.7739 228.235 84.7809 230.692L84.8618 258.997C84.8681 261.205 83.0803 262.998 80.8727 262.998Z" fill="#3F3E43"/>
<path d="M120.682 248.98C120.682 250.228 119.562 251.185 118.314 251.185H99.9347C99.5354 251.185 99.237 251.556 99.3617 251.935C99.8219 253.335 100.664 254.467 101.887 255.333C103.322 256.348 105.107 256.855 107.242 256.855C108.712 256.855 110.007 256.645 111.127 256.225C111.261 256.173 111.394 256.117 111.525 256.057C113.237 255.285 115.377 255.261 116.65 256.641C117.809 257.898 117.859 259.875 116.457 260.853C114.003 262.563 110.862 263.418 107.032 263.418C103.847 263.418 101.03 262.805 98.5798 261.58C96.1298 260.32 94.2398 258.588 92.9098 256.383C91.5798 254.178 90.9148 251.675 90.9148 248.875C90.9148 246.11 91.5623 243.625 92.8573 241.42C94.1873 239.18 95.9898 237.448 98.2648 236.223C100.575 234.963 103.147 234.333 105.982 234.333C108.747 234.333 111.25 234.928 113.49 236.118C115.73 237.308 117.48 239.023 118.74 241.263C120.035 243.468 120.682 246.04 120.682 248.98ZM106.035 240.528C104.18 240.528 102.622 241.053 101.362 242.103C100.102 243.153 99.3323 244.588 99.0523 246.408H112.965C112.685 244.623 111.915 243.205 110.655 242.155C109.395 241.07 107.855 240.528 106.035 240.528Z" fill="#3F3E43"/>
<path d="M150.81 224.043C153.072 224.043 154.905 225.876 154.905 228.138V259.086C154.905 261.247 153.154 262.998 150.994 262.998H150.337C148.54 262.998 147.082 261.54 147.082 259.743C145.052 262.193 142.112 263.418 138.262 263.418C135.602 263.418 133.187 262.823 131.017 261.633C128.882 260.443 127.202 258.745 125.977 256.54C124.752 254.335 124.14 251.78 124.14 248.875C124.14 245.97 124.752 243.415 125.977 241.21C127.202 239.005 128.882 237.308 131.017 236.118C133.187 234.928 135.602 234.333 138.262 234.333C141.867 234.333 144.685 235.47 146.715 237.745V228.138C146.715 225.876 148.548 224.043 150.81 224.043ZM139.68 256.698C141.745 256.698 143.46 255.998 144.825 254.598C146.19 253.163 146.872 251.255 146.872 248.875C146.872 246.495 146.19 244.605 144.825 243.205C143.46 241.77 141.745 241.053 139.68 241.053C137.58 241.053 135.847 241.77 134.482 243.205C133.117 244.605 132.435 246.495 132.435 248.875C132.435 251.255 133.117 253.163 134.482 254.598C135.847 255.998 137.58 256.698 139.68 256.698Z" fill="#3F3E43"/>
<path d="M200.485 262.998C198.285 262.998 196.501 261.218 196.496 259.018L196.458 243.209C196.456 242.574 195.62 242.345 195.296 242.89L186.623 257.457C186.012 258.484 184.905 259.113 183.711 259.113C182.527 259.113 181.43 258.496 180.815 257.485L172.201 243.325C171.873 242.786 171.043 243.018 171.043 243.65V259.008C171.043 261.211 169.256 262.998 167.053 262.998C164.849 262.998 163.062 261.211 163.062 259.008V230.743C163.062 228.26 165.075 226.248 167.557 226.248C169.134 226.248 170.595 227.073 171.408 228.424L183.853 249.085L196.103 228.431C196.905 227.078 198.362 226.248 199.936 226.248C202.392 226.248 204.386 228.235 204.393 230.692L204.474 258.997C204.48 261.205 202.692 262.998 200.485 262.998Z" fill="#3F3E43"/>
<path d="M226.592 248.56L221.657 253.705V258.771C221.657 261.106 219.764 262.998 217.43 262.998C215.096 262.998 213.204 261.106 213.204 258.771V230.474C213.204 228.14 215.096 226.248 217.43 226.248C219.764 226.248 221.657 228.14 221.657 230.474V243.415L236.906 227.33C237.561 226.639 238.471 226.248 239.423 226.248C242.452 226.248 244.025 229.859 241.963 232.077L232.157 242.628L243.268 256.671C245.294 259.231 243.471 262.998 240.207 262.998C239.033 262.998 237.921 262.469 237.18 261.559L226.592 248.56Z" fill="#3F3E43"/>
<path d="M267.974 226.248C271.229 226.248 274.046 226.79 276.426 227.875C278.841 228.96 280.696 230.5 281.991 232.495C283.286 234.49 283.934 236.853 283.934 239.583C283.934 242.278 283.286 244.64 281.991 246.67C280.696 248.665 278.841 250.205 276.426 251.29C274.046 252.34 271.229 252.865 267.974 252.865H260.571V258.745C260.571 261.094 258.667 262.998 256.319 262.998C253.97 262.998 252.066 261.094 252.066 258.745V233.748C252.066 229.606 255.424 226.248 259.566 226.248H267.974ZM267.501 245.935C270.056 245.935 271.999 245.393 273.329 244.308C274.659 243.188 275.324 241.613 275.324 239.583C275.324 237.518 274.659 235.943 273.329 234.858C271.999 233.738 270.056 233.178 267.501 233.178H263.071C261.691 233.178 260.571 234.297 260.571 235.678V243.435C260.571 244.816 261.691 245.935 263.071 245.935H267.501Z" fill="#3F3E43"/>
<defs>
<filter id="filter0_f_106_1630" x="106.767" y="29.5229" width="195" height="195" filterUnits="userSpaceOnUse" color-interpolation-filters="sRGB">
<feFlood flood-opacity="0" result="BackgroundImageFix"/>
<feBlend mode="normal" in="SourceGraphic" in2="BackgroundImageFix" result="shape"/>
<feGaussianBlur stdDeviation="27" result="effect1_foregroundBlur_106_1630"/>
</filter>
<filter id="filter1_f_106_1630" x="22.7666" y="29.5229" width="195" height="195" filterUnits="userSpaceOnUse" color-interpolation-filters="sRGB">
<feFlood flood-opacity="0" result="BackgroundImageFix"/>
<feBlend mode="normal" in="SourceGraphic" in2="BackgroundImageFix" result="shape"/>
<feGaussianBlur stdDeviation="27" result="effect1_foregroundBlur_106_1630"/>
</filter>
</defs>
</svg>
