<svg width="173" height="73" viewBox="0 0 173 73" fill="none" xmlns="http://www.w3.org/2000/svg">
<path d="M86.712 45C85.8322 45 85.1185 44.2879 85.1164 43.4082L85.0992 36.18L81.1675 42.7837C80.923 43.1944 80.4803 43.446 80.0024 43.446C79.5291 43.446 79.09 43.1992 78.844 42.7948L74.9352 36.369V43.404C74.9352 44.2854 74.2206 45 73.3392 45C72.4577 45 71.7432 44.2854 71.7432 43.404V32.098C71.7432 31.105 72.5482 30.3 73.5412 30.3C74.1716 30.3 74.7561 30.6302 75.0814 31.1703L80.0592 39.435L84.9592 31.1733C85.2803 30.6319 85.8631 30.3 86.4925 30.3C87.4751 30.3 88.2724 31.0951 88.2752 32.0776L88.3076 43.3998C88.3101 44.2828 87.595 45 86.712 45Z" fill="#3F3E43"/>
<path d="M102.636 39.393C102.636 39.892 102.188 40.275 101.689 40.275H94.3368C94.1771 40.275 94.0577 40.4232 94.1076 40.5749C94.2917 41.1348 94.6284 41.5878 95.1178 41.934C95.6918 42.34 96.4058 42.543 97.2598 42.543C97.8478 42.543 98.3658 42.459 98.8138 42.291C98.8673 42.2699 98.9203 42.2475 98.9729 42.2238C99.6576 41.915 100.514 41.9053 101.023 42.4575C101.487 42.9601 101.507 43.7509 100.946 44.1419C99.9642 44.826 98.7076 45.168 97.1758 45.168C95.9018 45.168 94.7748 44.923 93.7948 44.433C92.8148 43.929 92.0588 43.236 91.5268 42.354C90.9948 41.472 90.7288 40.471 90.7288 39.351C90.7288 38.245 90.9878 37.251 91.5058 36.369C92.0378 35.473 92.7588 34.78 93.6688 34.29C94.5928 33.786 95.6218 33.534 96.7558 33.534C97.8618 33.534 98.8628 33.772 99.7588 34.248C100.655 34.724 101.355 35.41 101.859 36.306C102.377 37.188 102.636 38.217 102.636 39.393ZM96.7768 36.012C96.0348 36.012 95.4118 36.222 94.9078 36.642C94.4038 37.062 94.0958 37.636 93.9838 38.364H99.5488C99.4368 37.65 99.1288 37.083 98.6248 36.663C98.1208 36.229 97.5048 36.012 96.7768 36.012Z" fill="#3F3E43"/>
<path d="M114.687 29.418C115.591 29.418 116.325 30.1514 116.325 31.056V43.4355C116.325 44.2995 115.624 45 114.76 45H114.498C113.779 45 113.196 44.4171 113.196 43.698C112.384 44.678 111.208 45.168 109.668 45.168C108.604 45.168 107.638 44.93 106.77 44.454C105.916 43.978 105.244 43.299 104.754 42.417C104.264 41.535 104.019 40.513 104.019 39.351C104.019 38.189 104.264 37.167 104.754 36.285C105.244 35.403 105.916 34.724 106.77 34.248C107.638 33.772 108.604 33.534 109.668 33.534C111.11 33.534 112.237 33.989 113.049 34.899V31.056C113.049 30.1514 113.782 29.418 114.687 29.418ZM110.235 42.48C111.061 42.48 111.747 42.2 112.293 41.64C112.839 41.066 113.112 40.303 113.112 39.351C113.112 38.399 112.839 37.643 112.293 37.083C111.747 36.509 111.061 36.222 110.235 36.222C109.395 36.222 108.702 36.509 108.156 37.083C107.61 37.643 107.337 38.399 107.337 39.351C107.337 40.303 107.61 41.066 108.156 41.64C108.702 42.2 109.395 42.48 110.235 42.48Z" fill="#3F3E43"/>
<path d="M134.557 45C133.677 45 132.963 44.2879 132.961 43.4082L132.946 37.0844C132.945 36.8307 132.611 36.7391 132.481 36.9571L129.012 42.7837C128.768 43.1944 128.325 43.446 127.847 43.446C127.374 43.446 126.935 43.1992 126.689 42.7948L123.243 37.1311C123.112 36.9151 122.78 37.0083 122.78 37.261V43.404C122.78 44.2854 122.065 45 121.184 45C120.302 45 119.588 44.2854 119.588 43.404V32.098C119.588 31.105 120.393 30.3 121.386 30.3C122.016 30.3 122.601 30.6302 122.926 31.1703L127.904 39.435L132.804 31.1733C133.125 30.6319 133.708 30.3 134.337 30.3C135.32 30.3 136.117 31.0951 136.12 32.0776L136.152 43.3998C136.155 44.2828 135.44 45 134.557 45Z" fill="#3F3E43"/>
<path d="M145 39.225L143.026 41.283V43.3095C143.026 44.2431 142.269 45 141.335 45C140.401 45 139.645 44.2431 139.645 43.3095V31.9905C139.645 31.0569 140.401 30.3 141.335 30.3C142.269 30.3 143.026 31.0569 143.026 31.9905V37.167L149.125 30.7329C149.387 30.4565 149.751 30.3 150.132 30.3C151.344 30.3 151.973 31.7443 151.148 32.6318L147.226 36.852L151.67 42.4694C152.48 43.4932 151.751 45 150.446 45C149.976 45 149.531 44.7887 149.235 44.4246L145 39.225Z" fill="#3F3E43"/>
<path d="M161.552 30.3C162.854 30.3 163.981 30.517 164.933 30.951C165.899 31.385 166.641 32.001 167.159 32.799C167.677 33.597 167.936 34.542 167.936 35.634C167.936 36.712 167.677 37.657 167.159 38.469C166.641 39.267 165.899 39.883 164.933 40.317C163.981 40.737 162.854 40.947 161.552 40.947H158.591V43.299C158.591 44.2384 157.83 45 156.89 45C155.951 45 155.189 44.2384 155.189 43.299V33.3C155.189 31.6431 156.533 30.3 158.189 30.3H161.552ZM161.363 38.175C162.385 38.175 163.162 37.958 163.694 37.524C164.226 37.076 164.492 36.446 164.492 35.634C164.492 34.808 164.226 34.178 163.694 33.744C163.162 33.296 162.385 33.072 161.363 33.072H159.591C159.039 33.072 158.591 33.5197 158.591 34.072V37.175C158.591 37.7273 159.039 38.175 159.591 38.175H161.363Z" fill="#3F3E43"/>
<path d="M17 36.5C17 24.0736 27.0736 14 39.5 14C51.9264 14 62 24.0736 62 36.5C62 48.9264 51.9264 59 39.5 59C27.0736 59 17 48.9264 17 36.5Z" fill="#3974FC"/>
<g filter="url(#filter0_f_106_1414)">
<rect x="25.8394" y="36.5" width="27.3214" height="20.8929" rx="10.4464" fill="#3974FC"/>
</g>
<rect x="37.0894" y="31.2752" width="10.6667" height="18.4916" rx="5.33333" transform="rotate(-30 37.0894 31.2752)" fill="white"/>
<rect x="34.1606" y="25.9419" width="10.6667" height="18.4916" rx="5.33333" transform="rotate(30 34.1606 25.9419)" fill="white"/>
<g filter="url(#filter1_f_106_1414)">
<circle cx="44.8333" cy="37.1667" r="4.83333" fill="#F2F0F0"/>
</g>
<g filter="url(#filter2_f_106_1414)">
<circle cx="35.4998" cy="37.1667" r="4.83333" fill="#F2F0F0"/>
</g>
<rect x="28.915" y="31.2752" width="10.6667" height="18.4916" rx="5.33333" transform="rotate(-30 28.915 31.2752)" fill="white"/>
<rect x="42.1606" y="25.9419" width="10.6667" height="18.4916" rx="5.33333" transform="rotate(30 42.1606 25.9419)" fill="white"/>
<defs>
<filter id="filter0_f_106_1414" x="17.5431" y="28.2037" width="43.9139" height="37.4854" filterUnits="userSpaceOnUse" color-interpolation-filters="sRGB">
<feFlood flood-opacity="0" result="BackgroundImageFix"/>
<feBlend mode="normal" in="SourceGraphic" in2="BackgroundImageFix" result="shape"/>
<feGaussianBlur stdDeviation="4.14815" result="effect1_foregroundBlur_106_1414"/>
</filter>
<filter id="filter1_f_106_1414" x="32.5333" y="24.8667" width="24.5998" height="24.6" filterUnits="userSpaceOnUse" color-interpolation-filters="sRGB">
<feFlood flood-opacity="0" result="BackgroundImageFix"/>
<feBlend mode="normal" in="SourceGraphic" in2="BackgroundImageFix" result="shape"/>
<feGaussianBlur stdDeviation="3.73333" result="effect1_foregroundBlur_106_1414"/>
</filter>
<filter id="filter2_f_106_1414" x="23.1998" y="24.8667" width="24.5998" height="24.6" filterUnits="userSpaceOnUse" color-interpolation-filters="sRGB">
<feFlood flood-opacity="0" result="BackgroundImageFix"/>
<feBlend mode="normal" in="SourceGraphic" in2="BackgroundImageFix" result="shape"/>
<feGaussianBlur stdDeviation="3.73333" result="effect1_foregroundBlur_106_1414"/>
</filter>
</defs>
</svg>
