<svg width="97" height="17" viewBox="0 0 97 17" fill="none" xmlns="http://www.w3.org/2000/svg">
<path d="M15.712 16C14.8322 16 14.1185 15.2879 14.1164 14.4082L14.0992 7.17997L10.1675 13.7837C9.92296 14.1944 9.48034 14.446 9.00242 14.446V14.446C8.52908 14.446 8.09001 14.1991 7.84402 13.7947L3.93516 7.36897V14.404C3.93516 15.2854 3.22061 16 2.33916 16V16C1.45772 16 0.743164 15.2854 0.743164 14.404V3.09796C0.743164 2.10496 1.54815 1.29997 2.54116 1.29997V1.29997C3.17165 1.29997 3.75607 1.63021 4.08136 2.1703L9.05917 10.435L13.9592 2.17328C14.2803 1.6319 14.8631 1.29997 15.4925 1.29997V1.29997C16.4751 1.29997 17.2724 2.09502 17.2752 3.0776L17.3076 14.3998C17.3101 15.2828 16.595 16 15.712 16V16Z" fill="#3F3E43"/>
<path d="M31.6358 10.393V10.393C31.6358 10.8919 31.1875 11.275 30.6885 11.275H23.3368C23.1771 11.275 23.0577 11.4232 23.1076 11.5749C23.2917 12.1348 23.6284 12.5878 24.1178 12.934C24.6918 13.34 25.4058 13.543 26.2598 13.543C26.8478 13.543 27.3658 13.459 27.8138 13.291C27.8673 13.2699 27.9203 13.2475 27.9729 13.2238C28.6576 12.915 29.5137 12.9052 30.023 13.4574V13.4574C30.4865 13.9601 30.5066 14.7509 29.9456 15.1419C28.9642 15.8259 27.7076 16.168 26.1758 16.168C24.9018 16.168 23.7748 15.923 22.7948 15.433C21.8148 14.929 21.0588 14.236 20.5268 13.354C19.9948 12.472 19.7288 11.471 19.7288 10.351C19.7288 9.24497 19.9878 8.25097 20.5058 7.36897C21.0378 6.47297 21.7588 5.77997 22.6688 5.28997C23.5928 4.78597 24.6218 4.53397 25.7558 4.53397C26.8618 4.53397 27.8628 4.77197 28.7588 5.24797C29.6548 5.72397 30.3548 6.40997 30.8588 7.30597C31.3768 8.18797 31.6358 9.21697 31.6358 10.393ZM25.7768 7.01197C25.0348 7.01197 24.4118 7.22197 23.9078 7.64197C23.4038 8.06197 23.0958 8.63597 22.9838 9.36397H28.5488C28.4368 8.64997 28.1288 8.08297 27.6248 7.66297C27.1208 7.22897 26.5048 7.01197 25.7768 7.01197Z" fill="#3F3E43"/>
<path d="M43.6869 0.417969C44.5915 0.417969 45.3249 1.15133 45.3249 2.05597V14.4355C45.3249 15.2995 44.6244 16 43.7604 16H43.4979C42.7788 16 42.1959 15.417 42.1959 14.698V14.698C41.3839 15.678 40.2079 16.168 38.6679 16.168C37.6039 16.168 36.6379 15.93 35.7699 15.454C34.9159 14.978 34.2439 14.299 33.7539 13.417C33.2639 12.535 33.0189 11.513 33.0189 10.351C33.0189 9.18897 33.2639 8.16697 33.7539 7.28497C34.2439 6.40297 34.9159 5.72397 35.7699 5.24797C36.6379 4.77197 37.6039 4.53397 38.6679 4.53397C40.1099 4.53397 41.2369 4.98897 42.0489 5.89897V2.05597C42.0489 1.15133 42.7822 0.417969 43.6869 0.417969V0.417969ZM39.2349 13.48C40.0609 13.48 40.7469 13.2 41.2929 12.64C41.8389 12.066 42.1119 11.303 42.1119 10.351C42.1119 9.39897 41.8389 8.64297 41.2929 8.08297C40.7469 7.50897 40.0609 7.22197 39.2349 7.22197C38.3949 7.22197 37.7019 7.50897 37.1559 8.08297C36.6099 8.64297 36.3369 9.39897 36.3369 10.351C36.3369 11.303 36.6099 12.066 37.1559 12.64C37.7019 13.2 38.3949 13.48 39.2349 13.48Z" fill="#3F3E43"/>
<path d="M63.5567 16C62.677 16 61.9632 15.2879 61.9611 14.4082L61.946 8.08435C61.9454 7.83066 61.611 7.73907 61.4812 7.95705L58.0122 13.7837C57.7677 14.1944 57.3251 14.446 56.8471 14.446V14.446C56.3738 14.446 55.9347 14.1991 55.6887 13.7947L52.2435 8.13106C52.1121 7.91512 51.7799 8.00823 51.7799 8.26099V14.404C51.7799 15.2854 51.0653 16 50.1839 16V16C49.3024 16 48.5879 15.2854 48.5879 14.404V3.09796C48.5879 2.10496 49.3929 1.29997 50.3859 1.29997V1.29997C51.0164 1.29997 51.6008 1.63021 51.9261 2.1703L56.9039 10.435L61.8039 2.17328C62.125 1.6319 62.7078 1.29997 63.3373 1.29997V1.29997C64.3198 1.29997 65.1172 2.09502 65.12 3.0776L65.1523 14.3998C65.1548 15.2828 64.4397 16 63.5567 16V16Z" fill="#3F3E43"/>
<path d="M73.9995 10.225L72.0255 12.283V14.3095C72.0255 15.2431 71.2687 16 70.335 16V16C69.4014 16 68.6445 15.2431 68.6445 14.3095V2.99047C68.6445 2.05683 69.4014 1.29997 70.335 1.29997V1.29997C71.2687 1.29997 72.0255 2.05683 72.0255 2.99047V8.16697L78.1252 1.73282C78.3872 1.45648 78.7512 1.29997 79.132 1.29997V1.29997C80.3437 1.29997 80.9731 2.74428 80.1481 3.63179L76.2255 7.85197L80.6703 13.4694C81.4803 14.4932 80.7511 16 79.4456 16V16C78.9761 16 78.5314 15.7887 78.2349 15.4246L73.9995 10.225Z" fill="#3F3E43"/>
<path d="M90.5525 1.29997C91.8545 1.29997 92.9815 1.51697 93.9335 1.95097C94.8995 2.38497 95.6415 3.00097 96.1595 3.79897C96.6775 4.59697 96.9365 5.54197 96.9365 6.63397C96.9365 7.71197 96.6775 8.65697 96.1595 9.46897C95.6415 10.267 94.8995 10.883 93.9335 11.317C92.9815 11.737 91.8545 11.947 90.5525 11.947H87.5915V14.299C87.5915 15.2384 86.8299 16 85.8905 16V16C84.951 16 84.1895 15.2384 84.1895 14.299V4.29997C84.1895 2.64311 85.5326 1.29997 87.1895 1.29997H90.5525ZM90.3635 9.17497C91.3855 9.17497 92.1625 8.95797 92.6945 8.52397C93.2265 8.07597 93.4925 7.44597 93.4925 6.63397C93.4925 5.80797 93.2265 5.17797 92.6945 4.74397C92.1625 4.29597 91.3855 4.07197 90.3635 4.07197H88.5915C88.0392 4.07197 87.5915 4.51968 87.5915 5.07197V8.17497C87.5915 8.72725 88.0392 9.17497 88.5915 9.17497H90.3635Z" fill="#3F3E43"/>
</svg>
