<svg width="323" height="305" viewBox="0 0 323 305" fill="none" xmlns="http://www.w3.org/2000/svg">
<path d="M80.8732 262.998C78.6738 262.998 76.8894 261.218 76.8842 259.018L76.8412 240.948L67.0119 257.457C66.4007 258.484 65.2941 259.113 64.0993 259.113C62.916 259.113 61.8183 258.496 61.2033 257.485L51.4312 241.42V259.008C51.4312 261.211 49.6448 262.998 47.4412 262.998C45.2376 262.998 43.4512 261.211 43.4512 259.008V230.743C43.4512 228.26 45.4636 226.248 47.9462 226.248C49.5224 226.248 50.9834 227.073 51.7967 228.424L64.2412 249.085L76.4913 228.431C77.294 227.078 78.751 226.248 80.3246 226.248C82.781 226.248 84.7744 228.235 84.7814 230.692L84.8622 258.997C84.8685 261.205 83.0808 262.998 80.8732 262.998Z" fill="white"/>
<path d="M120.683 248.98C120.683 250.228 119.562 251.185 118.315 251.185H99.9352C99.5359 251.185 99.2375 251.556 99.3622 251.935C99.8224 253.335 100.664 254.467 101.888 255.333C103.323 256.348 105.108 256.855 107.243 256.855C108.713 256.855 110.008 256.645 111.128 256.225C111.261 256.173 111.394 256.117 111.525 256.057C113.237 255.285 115.378 255.261 116.651 256.641C117.81 257.898 117.86 259.875 116.457 260.853C114.004 262.563 110.862 263.418 107.033 263.418C103.848 263.418 101.03 262.805 98.5803 261.58C96.1303 260.32 94.2403 258.588 92.9103 256.383C91.5803 254.178 90.9153 251.675 90.9153 248.875C90.9153 246.11 91.5628 243.625 92.8578 241.42C94.1878 239.18 95.9903 237.448 98.2653 236.223C100.575 234.963 103.148 234.333 105.983 234.333C108.748 234.333 111.25 234.928 113.49 236.118C115.73 237.308 117.48 239.023 118.74 241.263C120.035 243.468 120.683 246.04 120.683 248.98ZM106.035 240.528C104.18 240.528 102.623 241.053 101.363 242.103C100.103 243.153 99.3328 244.588 99.0528 246.408H112.965C112.685 244.623 111.915 243.205 110.655 242.155C109.395 241.07 107.855 240.528 106.035 240.528Z" fill="white"/>
<path d="M150.81 224.043C153.072 224.043 154.905 225.876 154.905 228.138V259.086C154.905 261.247 153.154 262.998 150.994 262.998H150.338C148.54 262.998 147.083 261.54 147.083 259.743C145.053 262.193 142.113 263.418 138.263 263.418C135.603 263.418 133.188 262.823 131.018 261.633C128.883 260.443 127.203 258.745 125.978 256.54C124.753 254.335 124.14 251.78 124.14 248.875C124.14 245.97 124.753 243.415 125.978 241.21C127.203 239.005 128.883 237.308 131.018 236.118C133.188 234.928 135.603 234.333 138.263 234.333C141.868 234.333 144.685 235.47 146.715 237.745V228.138C146.715 225.876 148.549 224.043 150.81 224.043ZM139.68 256.698C141.745 256.698 143.46 255.998 144.825 254.598C146.19 253.163 146.873 251.255 146.873 248.875C146.873 246.495 146.19 244.605 144.825 243.205C143.46 241.77 141.745 241.053 139.68 241.053C137.58 241.053 135.848 241.77 134.483 243.205C133.118 244.605 132.435 246.495 132.435 248.875C132.435 251.255 133.118 253.163 134.483 254.598C135.848 255.998 137.58 256.698 139.68 256.698Z" fill="white"/>
<path d="M200.485 262.998C198.286 262.998 196.501 261.218 196.496 259.018L196.458 243.209C196.457 242.574 195.621 242.345 195.296 242.89L186.624 257.457C186.012 258.484 184.906 259.113 183.711 259.113C182.528 259.113 181.43 258.496 180.815 257.485L172.202 243.325C171.874 242.786 171.043 243.018 171.043 243.65V259.008C171.043 261.211 169.257 262.998 167.053 262.998C164.849 262.998 163.063 261.211 163.063 259.008V230.743C163.063 228.26 165.075 226.248 167.558 226.248C169.134 226.248 170.595 227.073 171.408 228.424L183.853 249.085L196.103 228.431C196.906 227.078 198.363 226.248 199.936 226.248C202.393 226.248 204.386 228.235 204.393 230.692L204.474 258.997C204.48 261.205 202.693 262.998 200.485 262.998Z" fill="white"/>
<path d="M226.592 248.56L221.657 253.705V258.771C221.657 261.106 219.765 262.998 217.431 262.998C215.097 262.998 213.205 261.106 213.205 258.771V230.474C213.205 228.14 215.097 226.248 217.431 226.248C219.765 226.248 221.657 228.14 221.657 230.474V243.415L236.906 227.33C237.561 226.639 238.471 226.248 239.423 226.248C242.452 226.248 244.026 229.859 241.964 232.077L232.157 242.628L243.269 256.671C245.294 259.231 243.471 262.998 240.207 262.998C239.033 262.998 237.922 262.469 237.18 261.559L226.592 248.56Z" fill="white"/>
<path d="M267.974 226.248C271.229 226.248 274.047 226.79 276.427 227.875C278.842 228.96 280.697 230.5 281.992 232.495C283.287 234.49 283.934 236.853 283.934 239.583C283.934 242.278 283.287 244.64 281.992 246.67C280.697 248.665 278.842 250.205 276.427 251.29C274.047 252.34 271.229 252.865 267.974 252.865H260.572V258.745C260.572 261.094 258.668 262.998 256.319 262.998C253.971 262.998 252.067 261.094 252.067 258.745V233.748C252.067 229.606 255.425 226.248 259.567 226.248H267.974ZM267.502 245.935C270.057 245.935 271.999 245.393 273.329 244.308C274.659 243.188 275.324 241.613 275.324 239.583C275.324 237.518 274.659 235.943 273.329 234.858C271.999 233.738 270.057 233.178 267.502 233.178H263.072C261.691 233.178 260.572 234.297 260.572 235.678V243.435C260.572 244.816 261.691 245.935 263.072 245.935H267.502Z" fill="white"/>
<rect x="133" y="74" width="96" height="166.425" rx="48" transform="rotate(-30 133 74)" fill="white"/>
<rect x="108.213" y="26" width="96" height="166.425" rx="48" transform="rotate(30 108.213 26)" fill="white"/>
<g filter="url(#filter0_f_107_3965)">
<circle cx="204.267" cy="127.023" r="43.5" fill="#F2F0F0"/>
</g>
<g filter="url(#filter1_f_107_3965)">
<circle cx="120.267" cy="127.023" r="43.5" fill="#F2F0F0"/>
</g>
<rect x="61.001" y="74" width="96" height="166.425" rx="48" transform="rotate(-30 61.001 74)" fill="white"/>
<rect x="180.213" y="26" width="96" height="166.425" rx="48" transform="rotate(30 180.213 26)" fill="white"/>
<defs>
<filter id="filter0_f_107_3965" x="106.767" y="29.5229" width="195" height="195" filterUnits="userSpaceOnUse" color-interpolation-filters="sRGB">
<feFlood flood-opacity="0" result="BackgroundImageFix"/>
<feBlend mode="normal" in="SourceGraphic" in2="BackgroundImageFix" result="shape"/>
<feGaussianBlur stdDeviation="27" result="effect1_foregroundBlur_107_3965"/>
</filter>
<filter id="filter1_f_107_3965" x="22.7666" y="29.5229" width="195" height="195" filterUnits="userSpaceOnUse" color-interpolation-filters="sRGB">
<feFlood flood-opacity="0" result="BackgroundImageFix"/>
<feBlend mode="normal" in="SourceGraphic" in2="BackgroundImageFix" result="shape"/>
<feGaussianBlur stdDeviation="27" result="effect1_foregroundBlur_107_3965"/>
</filter>
</defs>
</svg>
